<svg xmlns="http://www.w3.org/2000/svg" viewBox="0 0 55 55" width="55" height="55">
	<style>
		tspan { white-space:pre }
		.shp0 { fill: #696b6a } 
		.shp1 { fill: #252825 } 
	</style>
	<g id="footer">
		<path id="Ellipse 2 copy 2" class="shp0" d="M28 2C42.36 2 54 13.64 54 28C54 42.36 42.36 54 28 54C13.64 54 2 42.36 2 28C2 13.64 13.64 2 28 2Z" />
		<path id="dribbble" fill-rule="evenodd" class="shp1" d="M27.5 12C36.61 12 44 19.39 44 28.5C44 37.61 36.61 45 27.5 45C18.39 45 11 37.61 11 28.5C11 19.39 18.39 12 27.5 12ZM14.3 28.5C14.3 31.69 15.43 34.61 17.31 36.89C18.77 34.47 22.3 29.83 28.67 28.04C28.25 27.14 27.82 26.28 27.39 25.46C21.37 27.79 16.83 27.95 14.32 27.75C14.31 28 14.3 28.25 14.3 28.5ZM27.5 41.7C29.39 41.7 31.19 41.3 32.81 40.59C32.15 36.96 31.01 33.49 29.69 30.35C25.96 31.37 22.06 33.75 19.14 38.72C21.42 40.58 24.33 41.7 27.5 41.7ZM21.86 16.56C18.31 18.24 15.62 21.47 14.67 25.37C18.03 25.41 22.49 24.83 26.31 23.46C24.54 20.33 22.87 17.92 21.86 16.56ZM37.61 20.01C34.9 21.84 32.35 23.26 30 24.35C30.54 25.41 31.03 26.46 31.47 27.48C34.13 27.14 37.19 27.29 40.7 28.2C40.63 25.08 39.48 22.23 37.61 20.01ZM35.16 39.25C38.04 37.2 40.06 34.01 40.57 30.35C38.95 29.94 35.9 29.39 32.43 29.81C34.26 34.56 34.99 38.28 35.16 39.25ZM27.5 15.3C26.42 15.3 25.37 15.43 24.37 15.67C26.15 17.85 27.66 20.12 28.93 22.36C32.37 20.74 34.61 19 35.64 18.11C33.4 16.35 30.57 15.3 27.5 15.3Z" />
	</g>
</svg>