<svg xmlns="http://www.w3.org/2000/svg" viewBox="0 0 55 55" width="55" height="55">
	<style>
		tspan { white-space:pre }
		.shp0 { fill: #696b6a } 
		.shp1 { fill: #252825 } 
	</style>
	<g id="footer">
		<path id="Ellipse 2 copy" class="shp0" d="M28 2C42.36 2 54 13.64 54 28C54 42.36 42.36 54 28 54C13.64 54 2 42.36 2 28C2 13.64 13.64 2 28 2Z" />
		<path id="twitter" class="shp1" d="M44 20.77L41.28 23.53C41.28 23.53 41.28 23.28 41.28 23.99C41.28 24.5 41.2 24.98 41.09 25.45C41.02 29.25 39.83 34.3 34.94 38.28C25.31 46.12 15 39.21 15 39.21C23.16 39.21 23.16 36.44 23.16 36.44C21.34 36.44 17.72 32.75 17.72 32.75C18.62 33.67 20.44 32.75 20.44 32.75C15.91 29.99 15.91 27.22 15.91 27.22C16.81 28.14 18.62 27.22 18.62 27.22C14.09 23.53 16.81 18.92 16.81 18.92C17.72 23.53 29.5 25.38 29.5 25.38L29.65 25.3C29.56 24.88 29.5 23.98 29.5 23.53C29.5 20.22 32.14 18 35.39 18C37.18 18 38.77 18.83 39.85 20.11L40.37 19.84L43.09 18L41.28 21.69L44 20.77Z" />
	</g>
</svg>